# xmcd
#
# Track frame offsets:
#	150
#	16687
#	34424
#	60936
#	83236
#	103073
#	120135
#	134347
#	150276
#	168313
#	185375
#	199962
#	215449
#	233631
#
# Disc length: 3318 seconds
#
# Revision: 1
# Processed by: cddbd v1.5.2PL0 Copyright (c) Steve Scherf et al.
# Submitted via: audiograbber 1.83.01
#
DISCID=a80cf40e
DTITLE=Various Artist - Hitz Country Vol. 6
DYEAR=2009
DGENRE=Country
TTITLE0=Only You Can Love Me This Way - Only You Can Love Me This Way
TTITLE1=Lady Antebellum - Need You Now 
TTITLE2=Brad Paisley - Welcome To The Future
TTITLE3=Taylor Swift - Fifteen
TTITLE4=Alan Jackson - I Still Like Bologna 
TTITLE5=The Lost Trailers - Country Folks (Livin' Loud)
TTITLE6=Fast Ryde - That Thang
TTITLE7=Whitney Duncan - Skinny Dippin
TTITLE8=Dierks Bentley - I Wanna Make You Close Your Eyes 
TTITLE9=Miranda Lambert - White Liar
TTITLE10=Josh Turner - Why Don't We Just Dance
TTITLE11=Phil Vassar - Everywhere I Go
TTITLE12=Blake Shelton - I'll Just Hold On
TTITLE13=Jason Aldean - Big Green Tractor
EXTD=
EXTT0=
EXTT1=
EXTT2=
EXTT3=
EXTT4=
EXTT5=
EXTT6=
EXTT7=
EXTT8=
EXTT9=
EXTT10=
EXTT11=
EXTT12=
EXTT13=
PLAYORDER=
